<?xml version="1.0" encoding="UTF-8"?>
<svg xmlns="http://www.w3.org/2000/svg" xmlns:xlink="http://www.w3.org/1999/xlink" width="365pt" height="123.17pt" viewBox="0 0 365 123.17" version="1.1">
<defs>
<clipPath id="clip1">
  <path d="M 0 0 L 124 0 L 124 123.171875 L 0 123.171875 Z M 0 0 "/>
</clipPath>
</defs>
<g id="surface1">
<path style=" stroke:none;fill-rule:nonzero;fill:rgb(100%,100%,100%);fill-opacity:1;" d="M 54.996094 9.691406 L 365 9.691406 L 365 114.457031 L 54.996094 114.457031 L 54.996094 9.691406 "/>
<path style=" stroke:none;fill-rule:nonzero;fill:rgb(96.499634%,53.29895%,12.199402%);fill-opacity:1;" d="M 55.550781 61.773438 L 364.996094 61.773438 L 364.996094 114.457031 L 55.550781 114.457031 L 55.550781 61.773438 "/>
<path style=" stroke:none;fill-rule:nonzero;fill:rgb(0.799561%,0.799561%,0.799561%);fill-opacity:1;" d="M 146.003906 33.859375 L 148.5 33.859375 C 150.46875 33.859375 151.84375 33.523438 152.640625 32.84375 C 153.4375 32.152344 153.835938 31.277344 153.835938 30.210938 C 153.835938 29.171875 153.488281 28.296875 152.800781 27.578125 C 152.109375 26.855469 150.8125 26.496094 148.90625 26.496094 L 146 26.496094 Z M 135.761719 19.792969 L 152.703125 19.792969 C 156.394531 19.792969 159.15625 20.667969 160.984375 22.425781 C 162.828125 24.179688 163.753906 26.679688 163.753906 29.917969 C 163.753906 33.25 162.75 35.851563 160.738281 37.730469 C 158.742188 39.605469 155.691406 40.539063 151.578125 40.539063 L 146 40.539063 L 146 52.78125 L 135.761719 52.78125 L 135.761719 19.792969 "/>
<path style=" stroke:none;fill-rule:nonzero;fill:rgb(0.799561%,0.799561%,0.799561%);fill-opacity:1;" d="M 168.214844 19.792969 L 178.4375 19.792969 L 178.4375 52.78125 L 168.214844 52.78125 L 168.214844 19.792969 "/>
<path style=" stroke:none;fill-rule:nonzero;fill:rgb(0.799561%,0.799561%,0.799561%);fill-opacity:1;" d="M 194.613281 33.160156 L 198.910156 33.160156 C 199.378906 33.160156 200.277344 33.007813 201.613281 32.707031 C 202.289063 32.574219 202.839844 32.226563 203.257813 31.671875 C 203.695313 31.117188 203.910156 30.484375 203.910156 29.757813 C 203.910156 28.695313 203.570313 27.875 202.898438 27.304688 C 202.21875 26.738281 200.953125 26.453125 199.097656 26.449219 L 194.617188 26.449219 Z M 184.378906 52.78125 L 184.378906 19.792969 L 201.367188 19.792969 C 204.519531 19.792969 206.921875 20.0625 208.59375 20.597656 C 210.253906 21.140625 211.597656 22.148438 212.613281 23.617188 C 213.632813 25.066406 214.148438 26.847656 214.148438 28.949219 C 214.148438 30.777344 213.757813 32.359375 212.972656 33.699219 C 212.195313 35.019531 211.121094 36.089844 209.757813 36.914063 C 208.886719 37.4375 207.691406 37.875 206.175781 38.21875 C 207.398438 38.621094 208.277344 39.023438 208.835938 39.429688 C 209.207031 39.699219 209.746094 40.277344 210.453125 41.164063 C 211.175781 42.050781 211.65625 42.726563 211.894531 43.210938 L 216.820313 52.773438 L 205.304688 52.773438 L 199.859375 42.6875 C 199.164063 41.386719 198.554688 40.539063 198.015625 40.148438 C 197.28125 39.636719 196.449219 39.382813 195.511719 39.382813 L 194.613281 39.382813 L 194.613281 52.773438 L 184.378906 52.78125 "/>
<path style=" stroke:none;fill-rule:nonzero;fill:rgb(0.799561%,0.799561%,0.799561%);fill-opacity:1;" d="M 238.242188 40.203125 L 234.59375 28.34375 L 230.96875 40.203125 Z M 240.375 47.335938 L 228.765625 47.335938 L 227.167969 52.78125 L 216.746094 52.78125 L 229.144531 19.792969 L 240.261719 19.792969 L 252.65625 52.78125 L 241.992188 52.78125 L 240.375 47.335938 "/>
<path style=" stroke:none;fill-rule:nonzero;fill:rgb(0.799561%,0.799561%,0.799561%);fill-opacity:1;" d="M 247.730469 19.792969 L 278.714844 19.792969 L 278.714844 27.9375 L 268.320313 27.9375 L 268.320313 52.777344 L 258.121094 52.777344 L 258.121094 27.9375 L 247.726563 27.9375 L 247.730469 19.792969 "/>
<path style=" stroke:none;fill-rule:nonzero;fill:rgb(0.799561%,0.799561%,0.799561%);fill-opacity:1;" d="M 282.296875 19.792969 L 309.613281 19.792969 L 309.613281 26.832031 L 292.511719 26.832031 L 292.511719 32.078125 L 308.375 32.078125 L 308.375 38.808594 L 292.511719 38.808594 L 292.511719 45.3125 L 310.109375 45.3125 L 310.109375 52.78125 L 282.300781 52.78125 L 282.296875 19.792969 "/>
<path style=" stroke:none;fill-rule:nonzero;fill:rgb(0.799561%,0.799561%,0.799561%);fill-opacity:1;" d="M 315.65625 19.792969 L 325.175781 19.792969 L 337.59375 38.042969 L 337.59375 19.792969 L 347.203125 19.792969 L 347.203125 52.78125 L 337.59375 52.78125 L 325.238281 34.667969 L 325.238281 52.78125 L 315.65625 52.78125 L 315.65625 19.792969 "/>
<path style=" stroke:none;fill-rule:nonzero;fill:rgb(100%,100%,100%);fill-opacity:1;" d="M 2.488281 61.570313 C 2.488281 28.964844 28.917969 2.535156 61.523438 2.535156 C 94.125 2.535156 120.554688 28.964844 120.554688 61.570313 C 120.554688 94.171875 94.121094 120.59375 61.523438 120.59375 C 28.917969 120.59375 2.488281 94.171875 2.488281 61.570313 "/>
<path style=" stroke:none;fill-rule:nonzero;fill:rgb(0.799561%,0.799561%,0.799561%);fill-opacity:1;" d="M 41.691406 17.1875 L 46.929688 17.1875 L 46.929688 25.65625 C 51.578125 24.605469 57.542969 23.9375 65.105469 23.9375 C 85.320313 23.9375 100.613281 30.398438 104.085938 48.621094 C 107.320313 65.582031 97.421875 70.675781 83.257813 74.691406 C 72.066406 77.859375 52.535156 78.636719 47.296875 85.179688 C 42.0625 91.726563 41.835938 100.023438 43.757813 107.445313 C 41.050781 100.644531 39.636719 96.207031 39.636719 90.792969 C 39.636719 87.851563 40.160156 84.609375 41.6875 81.578125 L 41.6875 29.855469 C 39.746094 29.730469 37.894531 29.761719 36.25 29.898438 C 37.636719 28.9375 39.421875 28 41.6875 27.171875 Z M 46.929688 30.574219 L 46.929688 75.449219 C 47.625 74.945313 48.382813 74.460938 49.207031 74.007813 C 60.625 67.789063 64.910156 62.164063 64.730469 51.839844 C 64.492188 38.113281 55.679688 32.457031 46.929688 30.574219 "/>
<path style=" stroke:none;fill-rule:nonzero;fill:rgb(100%,100%,100%);fill-opacity:1;" d="M 146.269531 85.242188 L 148.832031 85.242188 C 150.851563 85.242188 152.265625 84.898438 153.082031 84.222656 C 153.898438 83.527344 154.304688 82.648438 154.308594 81.574219 C 154.308594 80.53125 153.953125 79.648438 153.246094 78.917969 C 152.539063 78.191406 151.207031 77.828125 149.253906 77.828125 L 146.273438 77.828125 Z M 135.761719 71.074219 L 153.152344 71.074219 C 156.941406 71.074219 159.773438 71.957031 161.652344 73.722656 C 163.542969 75.492188 164.488281 78.007813 164.488281 81.273438 C 164.488281 84.632813 163.453125 87.25 161.394531 89.140625 C 159.347656 91.027344 156.214844 91.980469 151.996094 91.980469 L 146.269531 91.980469 L 146.269531 104.3125 L 135.761719 104.3125 L 135.761719 71.074219 "/>
<path style=" stroke:none;fill-rule:nonzero;fill:rgb(100%,100%,100%);fill-opacity:1;" d="M 192.328125 91.636719 L 188.585938 79.691406 L 184.863281 91.636719 Z M 194.515625 98.820313 L 182.601563 98.820313 L 180.960938 104.308594 L 170.273438 104.308594 L 182.996094 71.070313 L 194.402344 71.070313 L 207.125 104.308594 L 196.179688 104.308594 L 194.515625 98.820313 "/>
<path style=" stroke:none;fill-rule:nonzero;fill:rgb(100%,100%,100%);fill-opacity:1;" d="M 226.660156 84.539063 L 231.070313 84.539063 C 231.550781 84.539063 232.476563 84.386719 233.84375 84.085938 C 234.539063 83.949219 235.097656 83.605469 235.527344 83.042969 C 235.972656 82.484375 236.199219 81.84375 236.199219 81.117188 C 236.199219 80.046875 235.847656 79.226563 235.160156 78.648438 C 234.464844 78.074219 233.167969 77.785156 231.257813 77.785156 L 226.65625 77.785156 Z M 216.152344 104.308594 L 216.152344 71.074219 L 233.589844 71.074219 C 236.820313 71.074219 239.289063 71.34375 241 71.886719 C 242.707031 72.429688 244.085938 73.441406 245.132813 74.921875 C 246.175781 76.386719 246.699219 78.183594 246.699219 80.300781 C 246.699219 82.144531 246.300781 83.738281 245.5 85.078125 C 244.699219 86.414063 243.59375 87.488281 242.199219 88.324219 C 241.304688 88.851563 240.082031 89.292969 238.527344 89.636719 C 239.773438 90.046875 240.683594 90.453125 241.253906 90.863281 C 241.636719 91.136719 242.1875 91.714844 242.914063 92.613281 C 243.652344 93.503906 244.144531 94.195313 244.390625 94.675781 L 249.449219 104.3125 L 237.617188 104.3125 L 232.03125 94.15625 C 231.324219 92.839844 230.695313 91.984375 230.140625 91.59375 C 229.382813 91.078125 228.53125 90.824219 227.578125 90.824219 L 226.652344 90.824219 L 226.652344 104.3125 L 216.152344 104.3125 L 216.152344 104.308594 "/>
<path style=" stroke:none;fill-rule:nonzero;fill:rgb(100%,100%,100%);fill-opacity:1;" d="M 256.136719 71.074219 L 287.933594 71.074219 L 287.933594 79.277344 L 277.265625 79.277344 L 277.265625 104.304688 L 266.804688 104.304688 L 266.804688 79.277344 L 256.132813 79.277344 L 256.132813 71.074219 L 256.136719 71.074219 "/>
<path style=" stroke:none;fill-rule:nonzero;fill:rgb(100%,100%,100%);fill-opacity:1;" d="M 297.078125 71.074219 L 325.109375 71.074219 L 325.109375 78.171875 L 307.5625 78.171875 L 307.5625 83.453125 L 323.847656 83.453125 L 323.847656 90.238281 L 307.5625 90.238281 L 307.5625 96.789063 L 325.617188 96.789063 L 325.617188 104.316406 L 297.078125 104.316406 L 297.078125 71.074219 "/>
<path style=" stroke:none;fill-rule:nonzero;fill:rgb(100%,100%,100%);fill-opacity:1;" d="M 336.726563 71.074219 L 347.207031 71.074219 L 347.207031 104.308594 L 336.726563 104.308594 L 336.726563 71.074219 "/>
<g clip-path="url(#clip1)" clip-rule="nonzero">
<path style=" stroke:none;fill-rule:nonzero;fill:rgb(0.799561%,0.799561%,0.799561%);fill-opacity:1;" d="M 61.488281 5.066406 C 92.722656 5.066406 118.007813 30.351563 118.007813 61.585938 C 118.007813 92.820313 92.722656 118.105469 61.488281 118.105469 C 30.253906 118.105469 5.066406 92.820313 5.066406 61.585938 C 5.066406 30.347656 30.253906 5.066406 61.488281 5.066406 Z M 61.488281 -0.00390625 C 27.523438 -0.00390625 0 27.613281 0 61.582031 C 0 95.550781 27.519531 123.171875 61.488281 123.171875 C 95.457031 123.171875 123.074219 95.550781 123.074219 61.582031 C 123.074219 27.617188 95.457031 -0.00390625 61.488281 -0.00390625 "/>
</g>
</g>
</svg>
