<?xml version="1.0" encoding="UTF-8"?>
<svg xmlns="http://www.w3.org/2000/svg" xmlns:xlink="http://www.w3.org/1999/xlink" width="257.3pt" height="120.4pt" viewBox="0 0 257.3 120.4" version="1.1">
<defs>
<clipPath id="clip1">
  <path d="M 0 0 L 121 0 L 121 120.398438 L 0 120.398438 Z M 0 0 "/>
</clipPath>
<clipPath id="clip2">
  <path d="M 242 60 L 257.300781 60 L 257.300781 84 L 242 84 Z M 242 60 "/>
</clipPath>
</defs>
<g id="surface1">
<path style=" stroke:none;fill-rule:evenodd;fill:rgb(54.881287%,81.639099%,14.109802%);fill-opacity:1;" d="M 98.488281 4.839844 C 107.910156 4.839844 115.558594 12.476563 115.558594 21.910156 C 115.558594 31.339844 107.910156 38.984375 98.488281 38.984375 C 89.054688 38.984375 81.417969 31.339844 81.417969 21.910156 C 81.417969 12.476563 89.054688 4.839844 98.488281 4.839844 Z M 98.488281 43.878906 C 110.617188 43.878906 120.453125 34.042969 120.453125 21.910156 C 120.453125 9.78125 110.617188 -0.0546875 98.488281 -0.0546875 C 86.355469 -0.0546875 76.519531 9.78125 76.519531 21.910156 C 76.519531 34.042969 86.355469 43.878906 98.488281 43.878906 Z M 98.488281 43.878906 "/>
<path style=" stroke:none;fill-rule:evenodd;fill:rgb(54.881287%,81.639099%,14.109802%);fill-opacity:1;" d="M 43.414063 60.175781 C 43.414063 50.890625 50.9375 43.371094 60.222656 43.371094 L 60.222656 38.566406 C 48.277344 38.566406 38.597656 48.226563 38.597656 60.175781 C 38.597656 72.121094 48.277344 81.800781 60.222656 81.800781 C 72.167969 81.800781 81.824219 72.121094 81.824219 60.175781 L 77.0625 60.175781 C 77.0625 69.464844 69.503906 76.984375 60.222656 76.984375 C 50.9375 76.984375 43.414063 69.464844 43.414063 60.175781 Z M 43.414063 60.175781 "/>
<path style=" stroke:none;fill-rule:evenodd;fill:rgb(54.881287%,81.639099%,14.109802%);fill-opacity:1;" d="M 29.019531 60.175781 C 29.019531 77.410156 42.992188 91.378906 60.226563 91.378906 C 77.457031 91.378906 91.460938 77.410156 91.460938 60.175781 L 86.679688 60.175781 C 86.679688 74.757813 74.808594 86.589844 60.226563 86.589844 C 45.632813 86.589844 33.8125 74.757813 33.8125 60.175781 C 33.8125 45.589844 45.640625 33.761719 60.226563 33.761719 L 60.226563 28.964844 C 42.992188 28.964844 29.019531 42.9375 29.019531 60.175781 Z M 29.019531 60.175781 "/>
<path style=" stroke:none;fill-rule:evenodd;fill:rgb(54.881287%,81.639099%,14.109802%);fill-opacity:1;" d="M 19.332031 60.175781 C 19.332031 82.757813 37.644531 101.0625 60.222656 101.0625 C 82.804688 101.0625 101.066406 82.757813 101.066406 60.175781 L 96.25 60.175781 C 96.25 80.050781 80.105469 96.175781 60.222656 96.175781 C 40.339844 96.175781 24.226563 80.050781 24.226563 60.175781 C 24.226563 40.296875 40.339844 24.175781 60.222656 24.175781 L 60.226563 19.335938 C 37.644531 19.335938 19.332031 37.589844 19.332031 60.175781 Z M 19.332031 60.175781 "/>
<path style=" stroke:none;fill-rule:evenodd;fill:rgb(54.881287%,81.639099%,14.109802%);fill-opacity:1;" d="M 60.226563 9.589844 C 32.285156 9.589844 9.636719 32.234375 9.636719 60.171875 C 9.636719 88.109375 32.285156 110.757813 60.226563 110.757813 C 88.164063 110.757813 110.777344 88.117188 110.777344 60.175781 L 105.972656 60.171875 C 105.972656 85.421875 85.46875 105.882813 60.226563 105.882813 C 34.976563 105.882813 14.515625 85.421875 14.515625 60.171875 C 14.515625 34.925781 34.976563 14.464844 60.226563 14.464844 Z M 60.226563 9.589844 "/>
<g clip-path="url(#clip1)" clip-rule="nonzero">
<path style=" stroke:none;fill-rule:evenodd;fill:rgb(54.881287%,81.639099%,14.109802%);fill-opacity:1;" d="M 60.226563 115.601563 C 29.609375 115.601563 4.792969 90.785156 4.792969 60.171875 C 4.792969 29.554688 29.609375 4.746094 60.226563 4.746094 L 60.226563 -0.0546875 C 26.964844 -0.0546875 0 26.910156 0 60.171875 C 0 93.4375 26.964844 120.398438 60.226563 120.398438 C 93.492188 120.398438 120.453125 93.4375 120.453125 60.171875 L 115.691406 60.171875 C 115.691406 90.785156 90.835938 115.601563 60.226563 115.601563 Z M 60.226563 115.601563 "/>
</g>
<path style=" stroke:none;fill-rule:evenodd;fill:rgb(54.881287%,81.639099%,14.109802%);fill-opacity:1;" d="M 148.636719 52.539063 C 151.042969 52.539063 153.996094 52.003906 155.609375 51.246094 L 155.609375 38.207031 L 147.402344 38.207031 L 147.402344 42.300781 L 150.664063 42.300781 L 150.664063 48.160156 C 150.089844 48.257813 149.222656 48.300781 148.511719 48.300781 C 144.878906 48.300781 142.058594 46.382813 142.058594 40.214844 C 142.058594 34.152344 144.90625 32.226563 149.140625 32.226563 C 150.914063 32.226563 153.246094 32.605469 154.722656 33.210938 L 155.234375 29.0625 C 153.589844 28.402344 150.914063 27.984375 148.863281 27.984375 C 141.554688 27.984375 136.84375 31.808594 136.84375 40.277344 C 136.84375 48.5625 141.207031 52.539063 148.636719 52.539063 Z M 148.636719 52.539063 "/>
<path style=" stroke:none;fill-rule:evenodd;fill:rgb(54.881287%,81.639099%,14.109802%);fill-opacity:1;" d="M 231.402344 52.066406 L 236.484375 52.066406 L 236.484375 28.378906 L 231.402344 28.378906 L 231.402344 37.730469 L 223.785156 37.730469 L 223.785156 28.378906 L 218.695313 28.378906 L 218.695313 52.066406 L 223.785156 52.066406 L 223.785156 41.960938 L 231.402344 41.960938 Z M 231.402344 52.066406 "/>
<path style=" stroke:none;fill-rule:evenodd;fill:rgb(54.881287%,81.639099%,14.109802%);fill-opacity:1;" d="M 210.6875 52.066406 L 210.6875 32.632813 L 215.832031 32.632813 L 215.832031 28.378906 L 200.390625 28.378906 L 200.390625 32.632813 L 205.539063 32.632813 L 205.539063 52.066406 Z M 210.6875 52.066406 "/>
<path style=" stroke:none;fill-rule:evenodd;fill:rgb(54.881287%,81.639099%,14.109802%);fill-opacity:1;" d="M 188.417969 41.980469 L 196.78125 41.980469 L 196.78125 37.800781 L 188.417969 37.800781 L 188.417969 32.601563 L 198.269531 32.601563 L 198.269531 28.367188 L 183.328125 28.367188 L 183.328125 52.066406 L 198.601563 52.066406 L 198.601563 47.839844 L 188.417969 47.839844 Z M 188.417969 41.980469 "/>
<path style=" stroke:none;fill-rule:evenodd;fill:rgb(54.881287%,81.639099%,14.109802%);fill-opacity:1;" d="M 169.378906 31.894531 C 172.605469 31.894531 174.152344 33.914063 174.152344 40.207031 C 174.152344 46.464844 172.605469 48.582031 169.414063 48.582031 C 166.1875 48.582031 164.609375 46.492188 164.609375 40.207031 C 164.609375 33.941406 166.1875 31.894531 169.378906 31.894531 Z M 169.378906 52.757813 C 176.109375 52.757813 179.359375 49.144531 179.359375 40.207031 C 179.359375 31.453125 176.109375 27.675781 169.378906 27.675781 C 162.644531 27.675781 159.394531 31.453125 159.394531 40.207031 C 159.394531 48.960938 162.777344 52.757813 169.378906 52.757813 Z M 169.378906 52.757813 "/>
<path style=" stroke:none;fill-rule:evenodd;fill:rgb(54.881287%,81.639099%,14.109802%);fill-opacity:1;" d="M 256.796875 47.839844 L 246.613281 47.839844 L 246.613281 41.980469 L 254.976563 41.980469 L 254.976563 37.796875 L 246.613281 37.796875 L 246.613281 32.59375 L 256.460938 32.59375 L 256.460938 28.371094 L 241.523438 28.371094 L 241.523438 52.066406 L 256.796875 52.066406 Z M 256.796875 47.839844 "/>
<path style=" stroke:none;fill-rule:evenodd;fill:rgb(54.881287%,81.639099%,14.109802%);fill-opacity:1;" d="M 182.640625 64.316406 L 187.351563 64.316406 L 187.351563 83.066406 L 192.320313 83.066406 L 192.320313 64.316406 L 197.03125 64.316406 L 197.03125 60.195313 L 182.640625 60.195313 Z M 182.640625 64.316406 "/>
<path style=" stroke:none;fill-rule:evenodd;fill:rgb(54.881287%,81.639099%,14.109802%);fill-opacity:1;" d="M 138.554688 83.066406 L 143.574219 83.066406 L 143.574219 60.207031 L 138.554688 60.207031 Z M 138.554688 83.066406 "/>
<path style=" stroke:none;fill-rule:evenodd;fill:rgb(54.881287%,81.639099%,14.109802%);fill-opacity:1;" d="M 235.667969 75.113281 C 235.667969 77.761719 234.757813 79.234375 232.289063 79.234375 C 229.835938 79.234375 228.871094 77.734375 228.871094 75.113281 L 228.871094 60.195313 L 223.894531 60.195313 L 223.894531 75.296875 C 223.894531 80.785156 226.722656 83.464844 232.277344 83.464844 C 237.769531 83.464844 240.59375 80.785156 240.59375 75.296875 L 240.59375 60.195313 L 235.667969 60.195313 Z M 235.667969 75.113281 "/>
<path style=" stroke:none;fill-rule:evenodd;fill:rgb(54.881287%,81.639099%,14.109802%);fill-opacity:1;" d="M 173.046875 66.292969 C 173.046875 65.113281 173.65625 63.933594 176.144531 63.933594 C 177.703125 63.933594 179.085938 64.355469 180.46875 64.964844 L 181.019531 60.964844 C 179.433594 60.230469 177.792969 59.839844 175.71875 59.839844 C 170.441406 59.839844 168.164063 62.882813 168.164063 66.753906 C 168.164063 74.113281 177.253906 72.710938 177.253906 76.792969 C 177.253906 78.363281 176.265625 79.421875 174.1875 79.421875 C 172.140625 79.421875 170.410156 78.730469 168.707031 77.761719 L 168.070313 81.851563 C 169.835938 82.882813 172.023438 83.464844 174.40625 83.464844 C 179.347656 83.464844 182.140625 80.71875 182.140625 76.242188 C 182.140625 68.636719 173.046875 69.832031 173.046875 66.292969 Z M 173.046875 66.292969 "/>
<path style=" stroke:none;fill-rule:evenodd;fill:rgb(54.881287%,81.639099%,14.109802%);fill-opacity:1;" d="M 160.136719 73.550781 L 153.101563 60.195313 L 148.5625 60.195313 L 148.5625 83.070313 L 153.101563 83.070313 L 153.101563 69.71875 L 160.136719 83.070313 L 164.675781 83.070313 L 164.675781 60.195313 L 160.136719 60.195313 Z M 160.136719 73.550781 "/>
<g clip-path="url(#clip2)" clip-rule="nonzero">
<path style=" stroke:none;fill-rule:evenodd;fill:rgb(54.881287%,81.639099%,14.109802%);fill-opacity:1;" d="M 242.910156 60.195313 L 242.910156 64.316406 L 247.621094 64.316406 L 247.621094 83.066406 L 252.589844 83.066406 L 252.589844 64.316406 L 257.300781 64.316406 L 257.300781 60.195313 Z M 242.910156 60.195313 "/>
</g>
<path style=" stroke:none;fill-rule:evenodd;fill:rgb(54.881287%,81.639099%,14.109802%);fill-opacity:1;" d="M 199.574219 83.066406 L 204.59375 83.066406 L 204.59375 60.207031 L 199.574219 60.207031 Z M 199.574219 83.066406 "/>
<path style=" stroke:none;fill-rule:evenodd;fill:rgb(54.881287%,81.639099%,14.109802%);fill-opacity:1;" d="M 207.132813 64.316406 L 211.84375 64.316406 L 211.84375 83.066406 L 216.816406 83.066406 L 216.816406 64.316406 L 221.527344 64.316406 L 221.527344 60.195313 L 207.132813 60.195313 Z M 207.132813 64.316406 "/>
</g>
</svg>
