<?xml version="1.0" encoding="utf-8"?>
<!-- Generator: Adobe Illustrator 19.2.1, SVG Export Plug-In . SVG Version: 6.00 Build 0)  -->
<svg version="1.1" id="layer" xmlns="http://www.w3.org/2000/svg" xmlns:xlink="http://www.w3.org/1999/xlink" x="0px" y="0px"
	 viewBox="0 0 652 652" style="enable-background:new 0 0 652 652;" xml:space="preserve">
<style type="text/css">
	.st0{fill:#0068B4;}
	.st1{fill:#05A535;}
	.st2{fill:#F59B00;}
</style>
<path class="st0" d="M227.5,205v51c-8.8-10.7-16.6-18-23.5-22c-6.8-4.1-14.9-6.1-24.1-6.1c-14.4,0-26.4,5-36,15.1
	c-9.6,10.1-14.3,22.7-14.3,37.8c0,15.5,4.6,28.2,13.8,38.2c9.3,10,21.2,14.9,35.6,14.9c9.2,0,17.3-2,24.4-6
	c6.8-3.9,14.9-11.4,24.1-22.5v50.9c-15.6,8.2-31.2,12.2-46.7,12.2c-25.7,0-47.2-8.3-64.5-24.9c-17.3-16.7-26-37.4-26-62.2
	c0-24.8,8.8-45.7,26.3-62.7c17.5-17,39-25.5,64.5-25.5C197.5,193.3,213,197.2,227.5,205"/>
<path class="st1" d="M309.7,454.3h-38.4V197.9h38.4V454.3z M265.8,128.9c0-6.7,2.4-12.5,7.3-17.4c4.9-4.9,10.7-7.3,17.5-7.3
	c6.9,0,12.8,2.4,17.7,7.3c4.9,4.8,7.3,10.6,7.3,17.6c0,6.9-2.4,12.9-7.3,17.7c-4.8,4.9-10.6,7.3-17.5,7.3c-6.9,0-12.8-2.4-17.7-7.3
	C268.3,141.9,265.8,135.9,265.8,128.9"/>
<path class="st0" d="M379.5,280.1c0,15.8,4.2,28.7,12.7,38.7c8.7,10.1,19.7,15.1,32.9,15.1c14.1,0,25.5-4.9,34.2-14.6
	c8.7-10.1,13.1-22.8,13.1-38.3c0-15.5-4.4-28.3-13.1-38.3c-8.7-9.8-20-14.8-33.9-14.8c-13.1,0-24.1,5-32.9,14.9
	C383.8,252.9,379.5,265.3,379.5,280.1 M470.3,75.9h38.4v288h-38.4v-17.4c-15.1,14.7-32.2,22-51.2,22c-22.7,0-41.6-8.3-56.5-24.9
	c-14.9-16.9-22.3-38-22.3-63.4c0-24.8,7.4-45.4,22.3-62c14.8-16.7,33.3-25,55.7-25c19.4,0,36.8,8,52.1,23.9V75.9z"/>
<path class="st2" d="M196.8,538.3l13.6-35.5c29.7,12.5,57,21.2,82,26.1c25,5.1,53.8,7.7,86.3,7.7c32.3,0,61-2.6,86.2-7.7
	c25.1-5,52.5-13.7,82.2-26.1l13.7,35.5c-52,25-112.7,37.6-182,37.6C309.5,575.9,248.8,563.3,196.8,538.3"/>
</svg>
