<?xml version="1.0" encoding="UTF-8"?>
<svg xmlns="http://www.w3.org/2000/svg" xmlns:xlink="http://www.w3.org/1999/xlink" width="563.13pt" height="322.12pt" viewBox="0 0 563.13 322.12" version="1.1">
<defs>
<clipPath id="clip1">
  <path d="M 241 0 L 563.128906 0 L 563.128906 322.121094 L 241 322.121094 Z M 241 0 "/>
</clipPath>
<clipPath id="clip2">
  <path d="M 0 0 L 323 0 L 323 322.121094 L 0 322.121094 Z M 0 0 "/>
</clipPath>
</defs>
<g id="surface1">
<g clip-path="url(#clip1)" clip-rule="nonzero">
<path style=" stroke:none;fill-rule:nonzero;fill:rgb(0.392151%,17.651367%,35.301208%);fill-opacity:1;" d="M 348.765625 216.175781 L 380.589844 216.175781 L 401.761719 163.976563 L 424.53125 216.175781 L 456.703125 216.175781 L 490.4375 105.949219 L 454.347656 105.949219 L 437.527344 161.0625 L 416.191406 106.164063 L 387.945313 106.164063 L 367.164063 161.136719 L 350.710938 105.902344 L 314.609375 105.902344 Z M 563.125 161.0625 C 563.125 250.011719 491.019531 322.117188 402.070313 322.117188 C 313.121094 322.117188 241.011719 250.011719 241.011719 161.0625 C 241.011719 72.113281 313.121094 0.00390625 402.070313 0.00390625 C 491.019531 0.00390625 563.125 72.113281 563.125 161.0625 "/>
</g>
<g clip-path="url(#clip2)" clip-rule="nonzero">
<path style=" stroke:none;fill-rule:nonzero;fill:rgb(0.392151%,17.651367%,35.301208%);fill-opacity:1;" d="M 322.113281 161.0625 C 322.113281 250.011719 250.007813 322.121094 161.058594 322.121094 C 72.109375 322.121094 0 250.011719 0 161.0625 C 0 72.109375 72.109375 0.00390625 161.058594 0.00390625 C 209.011719 0.00390625 252.066406 20.960938 281.570313 54.214844 C 306.796875 82.644531 322.113281 120.066406 322.113281 161.0625 "/>
</g>
<path style=" stroke:none;fill-rule:nonzero;fill:rgb(100%,100%,100%);fill-opacity:1;" d="M 161.054688 34.277344 C 91.035156 34.277344 34.269531 91.039063 34.269531 161.0625 C 34.269531 231.085938 91.035156 287.847656 161.054688 287.847656 C 231.078125 287.847656 287.84375 231.085938 287.84375 161.0625 C 287.84375 91.039063 231.078125 34.277344 161.054688 34.277344 "/>
<path style=" stroke:none;fill-rule:nonzero;fill:rgb(0.392151%,17.651367%,35.301208%);fill-opacity:1;" d="M 171.4375 135.398438 L 133.445313 135.398438 L 133.445313 188.230469 L 171.4375 188.230469 C 171.4375 188.230469 202.863281 189.003906 202.863281 161.8125 C 202.863281 134.625 171.4375 135.398438 171.4375 135.398438 M 185.21875 98.632813 C 185.21875 98.632813 244.492188 105.476563 244.058594 160.453125 C 243.59375 219.167969 185.21875 223.585938 185.21875 223.585938 L 94.328125 223.585938 L 94.328125 98.539063 "/>
</g>
</svg>
