<?xml version="1.0" encoding="UTF-8"?>
<svg xmlns="http://www.w3.org/2000/svg" xmlns:xlink="http://www.w3.org/1999/xlink" width="454.28pt" height="333.07pt" viewBox="0 0 454.28 333.07" version="1.1">
<defs>
<clipPath id="clip1">
  <path d="M 434 239 L 454.28125 239 L 454.28125 264 L 434 264 Z M 434 239 "/>
</clipPath>
<clipPath id="clip2">
  <path d="M 100 0 L 338 0 L 338 333.070313 L 100 333.070313 Z M 100 0 "/>
</clipPath>
</defs>
<g id="surface1">
<path style=" stroke:none;fill-rule:evenodd;fill:rgb(13.699341%,12.199402%,12.5%);fill-opacity:1;" d="M 67.542969 209.890625 C 74.601563 220.480469 81.660156 227.980469 95.554688 227.980469 C 109.453125 227.980469 116.507813 220.480469 123.566406 209.890625 L 142.980469 180.996094 C 147.390625 174.378906 149.816406 169.527344 150.035156 160.925781 C 149.816406 152.324219 147.390625 147.46875 142.980469 140.851563 L 123.566406 111.957031 C 116.507813 101.371094 109.453125 93.871094 95.554688 93.871094 C 81.660156 93.871094 74.601563 101.371094 67.542969 111.957031 L 48.132813 140.851563 C 43.71875 147.46875 41.292969 152.324219 41.074219 160.925781 C 41.292969 169.527344 43.71875 174.378906 48.132813 180.996094 Z M 65.777344 167.542969 C 64.453125 165.558594 63.128906 163.570313 63.128906 160.925781 C 63.128906 158.277344 64.453125 156.292969 65.777344 154.308594 L 86.730469 122.765625 C 89.160156 119.238281 90.703125 115.929688 95.554688 115.929688 C 100.40625 115.929688 101.953125 119.238281 104.378906 122.765625 L 125.335938 154.308594 C 126.65625 156.292969 127.980469 158.277344 127.980469 160.925781 C 127.980469 163.570313 126.65625 165.558594 125.335938 167.542969 L 104.378906 199.085938 C 101.953125 202.613281 100.40625 205.921875 95.554688 205.921875 C 90.703125 205.921875 89.160156 202.613281 86.730469 199.085938 Z M 63.128906 70.050781 C 63.128906 62.550781 60.042969 56.371094 52.101563 56.371094 C 44.164063 56.371094 41.074219 62.550781 41.074219 70.050781 L 41.074219 83.726563 C 41.074219 90.34375 43.941406 97.179688 52.101563 97.179688 C 60.265625 97.179688 63.128906 90.34375 63.128906 83.726563 Z M 150.035156 70.050781 C 150.035156 62.550781 146.949219 56.371094 139.007813 56.371094 C 131.066406 56.371094 127.980469 62.550781 127.980469 70.050781 L 127.980469 83.726563 C 127.980469 90.34375 130.847656 97.179688 139.007813 97.179688 C 147.167969 97.179688 150.035156 90.34375 150.035156 83.726563 "/>
<path style=" stroke:none;fill-rule:evenodd;fill:rgb(13.699341%,12.199402%,12.5%);fill-opacity:1;" d="M 229.898438 130.265625 C 235.632813 130.265625 239.382813 130.707031 242.914063 134.457031 C 245.558594 137.324219 247.984375 138.867188 251.953125 138.867188 C 257.691406 138.867188 262.761719 134.234375 262.761719 128.28125 C 262.761719 122.324219 258.351563 119.679688 254.382813 116.367188 C 246.441406 109.753906 241.589844 109.089844 229.898438 109.089844 L 193.722656 109.089844 C 177.84375 109.089844 164.609375 119.234375 164.609375 136 C 164.609375 149.675781 171.445313 156.511719 183.136719 161.808594 L 232.984375 184.523438 C 237.839844 186.730469 244.015625 190.039063 244.015625 195.113281 C 244.015625 207.464844 233.871094 206.804688 226.371094 206.804688 L 197.695313 206.804688 C 191.078125 206.804688 184.460938 206.363281 180.710938 202.171875 C 178.285156 199.523438 175.855469 198.421875 172.550781 198.421875 C 166.59375 198.421875 161.519531 203.054688 161.519531 209.011719 C 161.519531 214.304688 167.253906 218.273438 171.226563 221.359375 C 179.164063 227.535156 186.664063 227.976563 197.695313 227.976563 L 230.339844 227.976563 C 250.632813 227.976563 265.1875 217.832031 265.1875 196.4375 C 265.1875 181.21875 258.132813 172.613281 244.457031 166.4375 L 191.519531 142.394531 C 188.429688 141.074219 185.78125 139.75 185.78125 136.21875 C 185.78125 129.382813 193.28125 130.265625 197.695313 130.265625 "/>
<path style=" stroke:none;fill-rule:evenodd;fill:rgb(13.699341%,12.199402%,12.5%);fill-opacity:1;" d="M 318.582031 109.089844 C 309.761719 109.089844 304.90625 110.855469 298.289063 116.589844 L 291.011719 122.765625 C 282.1875 130.265625 279.320313 136 279.320313 147.25 L 279.320313 189.820313 C 279.320313 201.066406 282.1875 206.804688 291.011719 214.300781 L 298.289063 220.480469 C 301.378906 223.128906 309.316406 227.980469 316.378906 227.980469 L 336.890625 227.980469 C 343.285156 227.980469 350.566406 223.347656 357.183594 217.171875 L 361.8125 212.539063 L 361.8125 213.859375 C 361.8125 220.921875 364.019531 227.980469 372.402344 227.980469 C 381.445313 227.980469 382.988281 220.480469 382.988281 213.199219 L 382.988281 79.972656 C 382.988281 72.695313 381.445313 65.417969 372.402344 65.417969 C 363.359375 65.417969 361.8125 72.695313 361.8125 79.972656 L 361.8125 124.53125 L 358.285156 120.78125 C 350.566406 113.0625 344.609375 109.089844 337.332031 109.089844 Z M 300.496094 155.632813 C 300.496094 149.675781 300.496094 142.175781 303.804688 139.527344 L 310.199219 134.457031 C 312.847656 132.25 315.492188 130.265625 318.140625 130.265625 L 333.140625 130.265625 C 335.785156 130.265625 339.535156 132.027344 343.507813 135.558594 L 355.640625 145.925781 C 358.726563 148.570313 361.8125 151.21875 361.8125 155.191406 L 361.8125 181.878906 C 361.8125 185.847656 358.726563 188.496094 355.640625 191.144531 L 343.507813 201.507813 C 339.535156 205.039063 335.785156 206.804688 333.140625 206.804688 L 318.140625 206.804688 C 315.492188 206.804688 312.847656 204.816406 310.199219 202.613281 L 303.804688 197.539063 C 300.496094 194.894531 300.496094 187.394531 300.496094 181.4375 "/>
<path style=" stroke:none;fill-rule:evenodd;fill:rgb(13.699341%,12.199402%,12.5%);fill-opacity:1;" d="M 4.300781 250.359375 L 13.722656 250.359375 C 16.042969 250.359375 17.808594 250.1875 19.484375 248.296875 C 21.078125 246.53125 21.25 244.984375 21.25 242.789063 L 21.25 236.941406 C 21.25 234.617188 21.078125 233.023438 19.226563 231.304688 C 17.679688 229.839844 16.261719 229.539063 14.28125 229.539063 L 0 229.539063 L 0 260.855469 C 0 262.234375 0.601563 263.007813 2.152344 263.007813 C 3.699219 263.007813 4.300781 262.234375 4.300781 260.855469 Z M 4.300781 233.84375 L 13.851563 233.84375 C 16.390625 233.84375 16.949219 234.488281 16.949219 236.941406 L 16.949219 242.960938 C 16.949219 245.414063 16.390625 246.058594 13.851563 246.058594 L 4.300781 246.058594 "/>
<path style=" stroke:none;fill-rule:evenodd;fill:rgb(13.699341%,12.199402%,12.5%);fill-opacity:1;" d="M 31.484375 260.167969 C 31.484375 261.585938 31.785156 263.007813 33.546875 263.007813 C 35.3125 263.007813 35.613281 261.585938 35.613281 260.167969 L 35.613281 249.714844 L 41.378906 244.941406 C 42.109375 244.339844 42.667969 243.953125 43.441406 243.953125 L 44.644531 243.953125 C 45.636719 243.953125 46.625 243.953125 47.140625 244.683594 C 47.570313 245.285156 47.570313 245.800781 47.570313 246.488281 C 47.570313 247.824219 48.171875 249.027344 49.679688 249.027344 C 51.441406 249.027344 51.699219 247.5625 51.699219 246.144531 C 51.699219 244.253906 51.226563 242.832031 49.851563 241.457031 C 48.734375 240.339844 47.398438 239.820313 45.808594 239.820313 L 42.496094 239.820313 C 41.207031 239.820313 40 240.640625 38.839844 241.585938 L 35.613281 244.253906 L 35.613281 242.574219 C 35.613281 241.199219 35.183594 239.820313 33.546875 239.820313 C 31.65625 239.820313 31.484375 241.371094 31.484375 242.875 "/>
<path style=" stroke:none;fill-rule:evenodd;fill:rgb(13.699341%,12.199402%,12.5%);fill-opacity:1;" d="M 70.539063 232.207031 C 70.539063 230.746094 69.933594 229.539063 68.386719 229.539063 C 66.839844 229.539063 66.234375 230.746094 66.234375 232.207031 L 66.234375 234.875 C 66.234375 236.164063 66.796875 237.5 68.386719 237.5 C 69.976563 237.5 70.539063 236.164063 70.539063 234.875 Z M 78.882813 232.207031 C 78.882813 230.746094 78.28125 229.539063 76.730469 229.539063 C 75.183594 229.539063 74.582031 230.746094 74.582031 232.207031 L 74.582031 234.875 C 74.582031 236.164063 75.140625 237.5 76.730469 237.5 C 78.324219 237.5 78.882813 236.164063 78.882813 234.875 Z M 82.667969 242.660156 C 82.667969 241.242188 82.367188 239.820313 80.601563 239.820313 C 78.839844 239.820313 78.539063 241.242188 78.539063 242.660156 L 78.539063 254.660156 L 72.472656 258.492188 C 72.085938 258.75 71.65625 258.878906 71.183594 258.878906 L 69.808594 258.878906 C 68.816406 258.878906 67.742188 258.621094 67.398438 258.015625 C 67.054688 257.414063 67.011719 256.296875 66.96875 255.351563 L 66.539063 242.660156 C 66.496094 241.328125 66.28125 239.820313 64.515625 239.820313 C 62.621094 239.820313 62.410156 241.414063 62.453125 242.917969 L 62.882813 255.910156 C 62.96875 258.144531 62.925781 259.910156 64.773438 261.5 C 66.152344 262.664063 67.441406 263.007813 68.601563 263.007813 L 71.65625 263.007813 C 72.773438 263.007813 73.894531 262.492188 75.226563 261.628906 L 78.582031 259.4375 L 78.582031 260.125 C 78.582031 261.542969 78.882813 263.007813 80.644531 263.007813 C 82.839844 263.007813 82.667969 260.898438 82.667969 259.953125 "/>
<path style=" stroke:none;fill-rule:evenodd;fill:rgb(13.699341%,12.199402%,12.5%);fill-opacity:1;" d="M 99.484375 260.167969 C 99.484375 261.585938 99.785156 263.007813 101.546875 263.007813 C 103.3125 263.007813 103.613281 261.585938 103.613281 260.167969 L 103.613281 243.953125 L 107.269531 243.953125 C 108.472656 243.953125 110.109375 243.691406 110.109375 241.886719 C 110.109375 240.125 108.644531 239.820313 107.269531 239.820313 L 103.613281 239.820313 L 103.613281 239.003906 C 103.613281 235.992188 104.773438 235.433594 107.570313 235.433594 L 110.796875 235.433594 C 112.214844 235.433594 113.636719 235.132813 113.636719 233.371094 C 113.636719 231.433594 112.042969 231.304688 110.625 231.304688 L 107.828125 231.304688 C 105.289063 231.304688 103.441406 231.476563 101.464844 233.371094 C 99.613281 235.175781 99.484375 236.894531 99.484375 239.261719 L 99.484375 239.820313 L 98.320313 239.820313 C 96.945313 239.820313 95.484375 240.125 95.484375 241.886719 C 95.484375 243.691406 97.117188 243.953125 98.320313 243.953125 L 99.484375 243.953125 "/>
<path style=" stroke:none;fill-rule:evenodd;fill:rgb(13.699341%,12.199402%,12.5%);fill-opacity:1;" d="M 144.601563 242.660156 C 144.601563 241.242188 144.300781 239.820313 142.539063 239.820313 C 140.773438 239.820313 140.472656 241.242188 140.472656 242.660156 L 140.472656 254.660156 L 134.410156 258.492188 C 134.019531 258.75 133.589844 258.878906 133.117188 258.878906 L 131.742188 258.878906 C 130.753906 258.878906 129.675781 258.621094 129.332031 258.015625 C 128.988281 257.414063 128.945313 256.296875 128.902344 255.347656 L 128.472656 242.660156 C 128.429688 241.328125 128.214844 239.820313 126.453125 239.820313 C 124.558594 239.820313 124.34375 241.414063 124.386719 242.917969 L 124.816406 255.910156 C 124.902344 258.144531 124.859375 259.910156 126.710938 261.5 C 128.085938 262.664063 129.375 263.007813 130.539063 263.007813 L 133.589844 263.007813 C 134.710938 263.007813 135.828125 262.492188 137.160156 261.628906 L 140.515625 259.4375 L 140.515625 260.125 C 140.515625 261.542969 140.816406 263.007813 142.582031 263.007813 C 144.773438 263.007813 144.601563 260.898438 144.601563 259.953125 "/>
<path style=" stroke:none;fill-rule:evenodd;fill:rgb(13.699341%,12.199402%,12.5%);fill-opacity:1;" d="M 165.589844 244.339844 C 166.023438 244.082031 166.453125 243.953125 166.882813 243.953125 L 168.257813 243.953125 C 170.753906 243.953125 170.96875 244.941406 171.054688 247.480469 L 171.484375 260.210938 C 171.527344 261.585938 171.871094 263.007813 173.550781 263.007813 C 175.398438 263.007813 175.613281 261.371094 175.570313 259.910156 L 175.140625 246.917969 C 175.054688 244.683594 175.140625 242.917969 173.289063 241.328125 C 172.042969 240.253906 171.054688 239.820313 169.464844 239.820313 L 166.410156 239.820313 C 165.074219 239.820313 163.914063 240.511719 162.839844 241.199219 L 159.484375 243.390625 L 159.484375 242.832031 C 159.484375 241.371094 159.269531 239.820313 157.417969 239.820313 C 155.527344 239.820313 155.355469 241.371094 155.355469 242.875 L 155.355469 260.167969 C 155.355469 261.585938 155.65625 263.007813 157.417969 263.007813 C 159.183594 263.007813 159.484375 261.585938 159.484375 260.167969 L 159.484375 248.167969 "/>
<path style=" stroke:none;fill-rule:evenodd;fill:rgb(13.699341%,12.199402%,12.5%);fill-opacity:1;" d="M 186.320313 253.800781 C 186.320313 255.480469 186.40625 256.554688 187.613281 257.671875 L 190.191406 259.996094 C 191.441406 261.113281 192.429688 261.242188 193.289063 261.242188 L 198.152344 261.242188 C 199.3125 261.242188 200.601563 260.167969 201.550781 259.222656 L 202.410156 258.359375 L 202.410156 264.039063 C 202.410156 264.8125 202.152344 265.414063 201.808594 265.757813 L 200.773438 266.707031 C 200.128906 267.265625 199.570313 267.652344 198.710938 267.652344 L 191.140625 267.652344 C 189.761719 267.652344 188.300781 267.953125 188.300781 269.714844 C 188.300781 271.523438 189.933594 271.78125 191.140625 271.78125 L 197.976563 271.78125 C 200.300781 271.78125 201.335938 271.523438 203.140625 270.019531 L 204.515625 268.855469 C 206.238281 267.394531 206.539063 266.617188 206.539063 262.878906 L 206.539063 242.703125 C 206.539063 241.328125 206.324219 239.820313 204.515625 239.820313 C 203.097656 239.820313 202.410156 240.941406 202.410156 242.230469 L 202.410156 242.703125 L 201.378906 241.886719 C 199.785156 240.640625 198.453125 239.820313 197.332031 239.820313 L 193.332031 239.820313 C 192.257813 239.820313 191.613281 240.125 190.753906 240.8125 L 187.742188 243.175781 C 186.882813 243.863281 186.320313 245.585938 186.320313 247.523438 Z M 190.449219 247.863281 C 190.449219 247.003906 190.492188 246.101563 190.96875 245.714844 L 192.6875 244.339844 C 192.988281 244.082031 193.375 243.949219 193.890625 243.949219 L 196.902344 243.949219 C 197.417969 243.949219 198.023438 244.382813 198.796875 245.027344 L 201.980469 247.652344 C 202.28125 247.90625 202.410156 248.46875 202.410156 249.027344 L 202.410156 252.039063 C 202.410156 252.597656 202.28125 253.15625 201.980469 253.414063 L 198.796875 256.039063 C 198.023438 256.683594 197.417969 257.113281 196.902344 257.113281 L 193.890625 257.113281 C 193.375 257.113281 192.988281 256.984375 192.6875 256.726563 L 190.96875 255.351563 C 190.492188 254.964844 190.449219 254.058594 190.449219 253.199219 "/>
<path style=" stroke:none;fill-rule:evenodd;fill:rgb(13.699341%,12.199402%,12.5%);fill-opacity:1;" d="M 230.621094 243.953125 C 231.742188 243.953125 232.472656 244.039063 233.160156 244.769531 C 233.679688 245.328125 234.148438 245.628906 234.925781 245.628906 C 236.042969 245.628906 237.03125 244.726563 237.03125 243.566406 C 237.03125 242.402344 236.171875 241.886719 235.398438 241.242188 C 233.851563 239.953125 232.902344 239.820313 230.621094 239.820313 L 223.570313 239.820313 C 220.472656 239.820313 217.890625 241.800781 217.890625 245.070313 C 217.890625 247.738281 219.226563 249.070313 221.503906 250.101563 L 231.226563 254.53125 C 232.171875 254.964844 233.375 255.609375 233.375 256.597656 C 233.375 259.007813 231.398438 258.878906 229.933594 258.878906 L 224.34375 258.878906 C 223.054688 258.878906 221.761719 258.792969 221.03125 257.972656 C 220.558594 257.457031 220.085938 257.242188 219.4375 257.242188 C 218.277344 257.242188 217.289063 258.144531 217.289063 259.304688 C 217.289063 260.339844 218.40625 261.113281 219.183594 261.714844 C 220.730469 262.921875 222.191406 263.007813 224.34375 263.007813 L 230.710938 263.007813 C 234.664063 263.007813 237.507813 261.027344 237.507813 256.855469 C 237.507813 253.886719 236.128906 252.210938 233.460938 251.003906 L 223.140625 246.316406 C 222.535156 246.058594 222.019531 245.800781 222.019531 245.113281 C 222.019531 243.777344 223.484375 243.953125 224.34375 243.953125 "/>
<path style=" stroke:none;fill-rule:evenodd;fill:rgb(13.699341%,12.199402%,12.5%);fill-opacity:1;" d="M 249.03125 257.542969 C 248.300781 258.230469 248.257813 258.535156 248.257813 259.523438 L 248.257813 260.597656 C 248.257813 261.800781 248.429688 263.007813 251.308594 263.007813 L 265.632813 263.007813 C 266.839844 263.007813 268.472656 262.75 268.472656 260.941406 C 268.472656 259.179688 267.011719 258.878906 265.632813 258.878906 L 253.417969 258.878906 L 267.269531 245.671875 C 268.214844 244.769531 268.472656 244.167969 268.472656 243.347656 L 268.472656 241.972656 C 268.472656 240.511719 267.785156 239.820313 265.675781 239.820313 L 252.257813 239.820313 C 250.882813 239.820313 249.417969 240.125 249.417969 241.886719 C 249.417969 243.691406 251.050781 243.953125 252.257813 243.953125 L 263.269531 243.953125 "/>
<path style=" stroke:none;fill-rule:evenodd;fill:rgb(13.699341%,12.199402%,12.5%);fill-opacity:1;" d="M 296.601563 263.007813 C 297.804688 263.007813 299.441406 262.75 299.441406 260.941406 C 299.441406 259.179688 297.980469 258.878906 296.601563 258.878906 L 287.742188 258.878906 C 286.363281 258.878906 285.546875 258.707031 284.988281 258.101563 L 283.953125 256.984375 C 283.65625 256.683594 283.355469 256.167969 283.355469 255.777344 L 283.355469 254.402344 L 296.601563 254.402344 C 299.054688 254.402344 299.441406 253.714844 299.441406 251.351563 L 299.441406 248.039063 C 299.441406 245.757813 299.183594 244.167969 297.289063 242.660156 L 295.613281 241.328125 C 294.019531 240.039063 293.074219 239.820313 291.054688 239.820313 L 287.269531 239.820313 C 285.589844 239.820313 284.644531 239.863281 282.707031 241.542969 L 281.246094 242.789063 C 279.527344 244.253906 279.222656 245.542969 279.222656 247.734375 L 279.222656 255.691406 C 279.222656 257.929688 279.699219 258.878906 281.332031 260.339844 L 283.097656 261.886719 C 284.386719 263.007813 285.074219 263.007813 286.796875 263.007813 Z M 283.355469 247.351563 C 283.355469 246.144531 283.699219 245.84375 284.214844 245.457031 L 285.632813 244.425781 C 286.320313 243.949219 286.96875 243.949219 287.742188 243.949219 L 291.226563 243.949219 C 291.871094 243.949219 292.6875 243.992188 293.203125 244.46875 L 294.796875 245.84375 C 295.355469 246.359375 295.3125 247.003906 295.3125 247.777344 L 295.3125 250.273438 L 283.355469 250.273438 "/>
<path style=" stroke:none;fill-rule:evenodd;fill:rgb(13.699341%,12.199402%,12.5%);fill-opacity:1;" d="M 320.429688 244.339844 C 320.859375 244.082031 321.289063 243.953125 321.71875 243.953125 L 323.097656 243.953125 C 325.589844 243.953125 325.804688 244.941406 325.890625 247.480469 L 326.324219 260.210938 C 326.367188 261.585938 326.710938 263.007813 328.386719 263.007813 C 330.238281 263.007813 330.449219 261.371094 330.40625 259.910156 L 329.980469 246.917969 C 329.890625 244.683594 329.980469 242.917969 328.128906 241.328125 C 326.882813 240.253906 325.890625 239.820313 324.300781 239.820313 L 321.246094 239.820313 C 319.914063 239.820313 318.753906 240.511719 317.675781 241.199219 L 314.320313 243.390625 L 314.320313 242.832031 C 314.320313 241.371094 314.105469 239.820313 312.257813 239.820313 C 310.363281 239.820313 310.191406 241.371094 310.191406 242.875 L 310.191406 260.167969 C 310.191406 261.585938 310.492188 263.007813 312.257813 263.007813 C 314.019531 263.007813 314.320313 261.585938 314.320313 260.167969 L 314.320313 248.167969 "/>
<path style=" stroke:none;fill-rule:evenodd;fill:rgb(13.699341%,12.199402%,12.5%);fill-opacity:1;" d="M 349.460938 243.953125 L 356.386719 243.953125 C 357.589844 243.953125 359.226563 243.695313 359.226563 241.886719 C 359.226563 240.125 357.761719 239.820313 356.386719 239.820313 L 349.460938 239.820313 L 349.460938 235.605469 C 349.460938 234.1875 349.160156 232.765625 347.398438 232.765625 C 345.632813 232.765625 345.332031 234.1875 345.332031 235.605469 L 345.332031 239.820313 L 343.996094 239.820313 C 342.621094 239.820313 341.160156 240.125 341.160156 241.886719 C 341.160156 243.695313 342.792969 243.953125 343.996094 243.953125 L 345.332031 243.953125 L 345.332031 255.179688 C 345.332031 257.414063 345.246094 259.179688 346.835938 260.941406 C 348.300781 262.535156 350.105469 263.007813 352.171875 263.007813 L 354.277344 263.007813 C 356.472656 263.007813 358.449219 262.707031 359.957031 260.898438 C 360.644531 260.082031 361.375 258.621094 361.375 257.457031 C 361.375 256.296875 360.429688 255.390625 359.269531 255.390625 C 358.234375 255.390625 357.460938 256.082031 357.203125 257.070313 C 356.773438 258.75 356 258.878906 354.320313 258.878906 L 352.214844 258.878906 C 349.375 258.878906 349.460938 257.542969 349.460938 255.222656 "/>
<path style=" stroke:none;fill-rule:evenodd;fill:rgb(13.699341%,12.199402%,12.5%);fill-opacity:1;" d="M 372.128906 260.167969 C 372.128906 261.585938 372.429688 263.007813 374.191406 263.007813 C 375.953125 263.007813 376.257813 261.585938 376.257813 260.167969 L 376.257813 249.714844 L 382.019531 244.941406 C 382.75 244.339844 383.3125 243.953125 384.085938 243.953125 L 385.289063 243.953125 C 386.277344 243.953125 387.269531 243.953125 387.78125 244.683594 C 388.214844 245.285156 388.214844 245.800781 388.214844 246.488281 C 388.214844 247.824219 388.816406 249.027344 390.320313 249.027344 C 392.085938 249.027344 392.34375 247.5625 392.34375 246.144531 C 392.34375 244.253906 391.871094 242.832031 390.492188 241.457031 C 389.375 240.339844 388.042969 239.820313 386.449219 239.820313 L 383.140625 239.820313 C 381.847656 239.820313 380.644531 240.640625 379.480469 241.585938 L 376.257813 244.253906 L 376.257813 242.574219 C 376.257813 241.199219 375.824219 239.820313 374.191406 239.820313 C 372.300781 239.820313 372.128906 241.371094 372.128906 242.875 "/>
<path style=" stroke:none;fill-rule:evenodd;fill:rgb(13.699341%,12.199402%,12.5%);fill-opacity:1;" d="M 423.3125 242.660156 C 423.3125 241.242188 423.007813 239.820313 421.246094 239.820313 C 419.480469 239.820313 419.183594 241.242188 419.183594 242.660156 L 419.183594 254.660156 L 413.117188 258.492188 C 412.730469 258.75 412.296875 258.878906 411.828125 258.878906 L 410.449219 258.878906 C 409.460938 258.878906 408.382813 258.621094 408.039063 258.015625 C 407.695313 257.414063 407.65625 256.296875 407.609375 255.347656 L 407.179688 242.660156 C 407.136719 241.328125 406.921875 239.820313 405.160156 239.820313 C 403.265625 239.820313 403.050781 241.414063 403.09375 242.917969 L 403.523438 255.910156 C 403.609375 258.144531 403.566406 259.910156 405.414063 261.5 C 406.792969 262.664063 408.085938 263.007813 409.246094 263.007813 L 412.296875 263.007813 C 413.417969 263.007813 414.535156 262.492188 415.871094 261.628906 L 419.226563 259.4375 L 419.226563 260.125 C 419.226563 261.542969 419.523438 263.007813 421.289063 263.007813 C 423.480469 263.007813 423.3125 260.898438 423.3125 259.953125 "/>
<g clip-path="url(#clip1)" clip-rule="nonzero">
<path style=" stroke:none;fill-rule:evenodd;fill:rgb(13.699341%,12.199402%,12.5%);fill-opacity:1;" d="M 447.09375 245.800781 C 447.441406 245.414063 448.214844 244.382813 448.816406 244.382813 C 449.933594 244.382813 449.71875 245.84375 449.761719 246.574219 L 450.191406 260.210938 C 450.234375 261.585938 450.578125 263.007813 452.257813 263.007813 C 454.105469 263.007813 454.320313 261.371094 454.277344 259.910156 L 453.847656 245.628906 C 453.804688 244.039063 453.890625 242.832031 452.859375 241.5 C 452.039063 240.425781 450.792969 239.820313 449.417969 239.820313 C 447.613281 239.820313 447.09375 240.253906 445.804688 241.542969 L 445.460938 241.886719 C 444.515625 240.597656 443.265625 239.820313 441.675781 239.820313 C 440.257813 239.820313 439.609375 240.382813 438.535156 241.199219 L 438.191406 241.457031 C 437.933594 240.511719 437.246094 239.820313 436.214844 239.820313 C 434.449219 239.820313 434.0625 241.285156 434.0625 242.746094 L 434.0625 260.167969 C 434.0625 261.585938 434.363281 263.007813 436.128906 263.007813 C 437.890625 263.007813 438.191406 261.585938 438.191406 260.167969 L 438.191406 246.746094 L 439.996094 245.070313 C 440.34375 244.769531 440.644531 244.382813 441.117188 244.382813 C 442.191406 244.382813 442.105469 245.671875 442.105469 246.359375 L 442.105469 260.167969 C 442.105469 261.585938 442.40625 263.007813 444.171875 263.007813 C 445.933594 263.007813 446.234375 261.585938 446.234375 260.167969 L 446.234375 246.746094 "/>
</g>
<g clip-path="url(#clip2)" clip-rule="nonzero">
<path style=" stroke:none;fill-rule:evenodd;fill:rgb(13.699341%,12.199402%,12.5%);fill-opacity:1;" d="M 337.410156 283.441406 C 307.210938 314.078125 265.226563 333.070313 218.804688 333.070313 C 172.386719 333.070313 130.402344 314.078125 100.199219 283.441406 L 128.398438 283.441406 C 153.390625 302.792969 184.753906 314.3125 218.804688 314.3125 C 252.859375 314.3125 284.222656 302.792969 309.210938 283.441406 Z M 104.714844 45.21875 C 134.519531 17.179688 174.65625 0.00390625 218.804688 0.00390625 C 262.953125 0.00390625 303.089844 17.179688 332.894531 45.21875 L 303.207031 45.21875 C 279.277344 28.539063 250.183594 18.757813 218.804688 18.757813 C 187.425781 18.757813 158.328125 28.539063 134.402344 45.21875 "/>
</g>
</g>
</svg>
