<?xml version="1.0" encoding="UTF-8"?>
<svg xmlns="http://www.w3.org/2000/svg" xmlns:xlink="http://www.w3.org/1999/xlink" width="193pt" height="193pt" viewBox="0 0 193 193" version="1.1">
<g id="surface1">
<path style=" stroke:none;fill-rule:evenodd;fill:rgb(100%,100%,100%);fill-opacity:1;" d="M 0 0.242188 L 192.757813 0.242188 L 192.757813 193 L 0 193 L 0 0.242188 "/>
<path style=" stroke:none;fill-rule:evenodd;fill:rgb(100%,100%,100%);fill-opacity:1;" d="M 82.851563 49.859375 C 82.851563 49.859375 82.304688 51.726563 82.3125 51.734375 C 85.605469 53.015625 83.996094 57.546875 83.996094 57.546875 C 83.996094 57.546875 76.816406 49.851563 57.839844 49.851563 L 27.195313 49.851563 L 26.660156 51.8125 C 28.582031 52.902344 28.976563 54.210938 28.65625 55.816406 C 28.355469 57.3125 26.390625 66.855469 26.390625 66.855469 C 19.371094 68.179688 14.039063 69.390625 13.226563 72.519531 L 8.554688 90.664063 C 7.992188 93.585938 12.183594 96.085938 18.351563 97.820313 L 18.78125 97.9375 C 18.035156 101.164063 16.070313 110.375 15.15625 112.265625 C 15.15625 112.265625 14.074219 115.183594 10.835938 116.402344 L 11.265625 118.414063 L 42.722656 118.414063 C 54.453125 118.414063 63.683594 115.835938 71.101563 111.671875 C 71.101563 111.671875 70.164063 115.515625 67.234375 116.402344 C 67.226563 116.402344 67.710938 118.421875 67.710938 118.421875 L 177.632813 118.414063 L 182.210938 100.535156 L 180.269531 99.792969 C 180.097656 100.140625 179.644531 101.816406 175.53125 101.816406 L 148.785156 101.816406 L 159.058594 58.445313 C 160.105469 54.035156 161.140625 52.867188 163.789063 51.804688 L 163.375 49.859375 Z M 99.253906 101.773438 L 96.894531 101.773438 L 99.472656 90.9375 L 123.632813 90.9375 C 127.738281 90.9375 127.6875 92.71875 127.414063 94.035156 L 127.175781 95.125 C 126.953125 96.097656 126.660156 97.355469 126.660156 97.355469 C 126.140625 99.382813 126.167969 101.773438 121.964844 101.773438 Z M 106.457031 74.839844 L 103.238281 74.839844 L 105.332031 65.871094 L 130.273438 65.871094 C 133.402344 65.871094 133.554688 67.59375 133.273438 68.949219 L 133.121094 69.777344 C 132.910156 70.765625 132.566406 72.289063 132.566406 72.289063 C 132.246094 73.695313 131.683594 74.839844 127.867188 74.839844 L 106.457031 74.839844 "/>
<path style=" stroke:none;fill-rule:evenodd;fill:rgb(0.39978%,37.599182%,63.899231%);fill-opacity:1;" d="M 10.917969 142.839844 L 14.292969 142.839844 C 16.644531 142.851563 20.945313 142.238281 22.59375 135.636719 C 23.671875 131.320313 21.992188 128.542969 17.59375 128.542969 L 14.480469 128.542969 Z M 17.464844 132.117188 C 19.226563 132.117188 18.988281 134.28125 18.601563 135.828125 C 18.265625 137.175781 17.414063 139.378906 15.648438 139.402344 L 17.464844 132.117188 "/>
<path style=" stroke:none;fill-rule:nonzero;fill:rgb(0.39978%,37.599182%,63.899231%);fill-opacity:1;" d="M 27.3125 142.851563 L 30.875 128.542969 L 27.007813 128.542969 L 23.445313 142.851563 L 27.3125 142.851563 "/>
<path style=" stroke:none;fill-rule:nonzero;fill:rgb(0.39978%,37.599182%,63.899231%);fill-opacity:1;" d="M 30.375 142.851563 L 37.558594 142.851563 L 38.402344 139.46875 L 35.085938 139.46875 L 35.628906 137.296875 L 38.605469 137.296875 L 39.445313 133.917969 L 36.46875 133.917969 L 36.96875 131.925781 L 40.285156 131.925781 L 41.128906 128.554688 L 33.9375 128.554688 L 30.375 142.851563 "/>
<path style=" stroke:none;fill-rule:evenodd;fill:rgb(0.39978%,37.599182%,63.899231%);fill-opacity:1;" d="M 67.28125 142.851563 L 72.472656 142.851563 C 75.921875 142.851563 77.566406 140.535156 78.003906 138.777344 C 78.480469 136.867188 77.769531 135.6875 75.910156 135.535156 L 75.917969 135.496094 C 77.550781 135.496094 78.90625 134.25 79.308594 132.640625 C 80.078125 129.539063 77.671875 128.554688 75.394531 128.554688 L 70.84375 128.554688 Z M 71.917969 139.761719 L 72.605469 137.015625 L 72.90625 137.015625 C 73.796875 137.015625 74.4375 137.410156 74.195313 138.382813 C 73.957031 139.347656 73.09375 139.761719 72.238281 139.761719 Z M 73.328125 134.117188 L 73.941406 131.644531 L 74.320313 131.652344 C 75.117188 131.652344 75.617188 132.007813 75.402344 132.859375 C 75.171875 133.796875 74.347656 134.117188 73.554688 134.117188 L 73.328125 134.117188 "/>
<path style=" stroke:none;fill-rule:nonzero;fill:rgb(0.39978%,37.599182%,63.899231%);fill-opacity:1;" d="M 88.945313 128.554688 L 86.699219 137.570313 C 86.609375 137.929688 86.503906 138.414063 86.292969 138.816406 C 86.101563 139.199219 85.78125 139.5 85.230469 139.5 C 84.699219 139.5 84.53125 139.199219 84.515625 138.796875 C 84.496094 138.414063 84.636719 137.921875 84.730469 137.550781 L 86.972656 128.554688 L 83.105469 128.554688 L 80.773438 137.902344 C 80.34375 139.632813 79.859375 143.101563 84.332031 143.101563 C 88.808594 143.101563 90.054688 139.632813 90.484375 137.910156 L 92.8125 128.5625 L 88.945313 128.554688 "/>
<path style=" stroke:none;fill-rule:nonzero;fill:rgb(0.39978%,37.599182%,63.899231%);fill-opacity:1;" d="M 92.210938 142.863281 L 95.929688 142.863281 L 96.972656 138.667969 C 97.308594 137.320313 97.472656 135.988281 97.710938 134.640625 L 97.757813 134.609375 L 98.582031 142.863281 L 102.304688 142.863281 L 105.863281 128.5625 L 102.152344 128.5625 L 101.234375 132.195313 C 100.832031 133.847656 100.703125 135.488281 100.449219 137.136719 L 100.398438 137.167969 L 99.457031 128.5625 L 95.777344 128.5625 L 92.210938 142.863281 "/>
<path style=" stroke:none;fill-rule:evenodd;fill:rgb(0.39978%,37.599182%,63.899231%);fill-opacity:1;" d="M 105.359375 142.863281 L 108.734375 142.863281 C 111.085938 142.863281 115.394531 142.257813 117.03125 135.65625 C 118.117188 131.332031 116.441406 128.5625 112.03125 128.5625 L 108.925781 128.5625 Z M 111.902344 132.125 C 113.671875 132.125 113.429688 134.289063 113.050781 135.847656 C 112.707031 137.1875 111.863281 139.390625 110.089844 139.410156 L 111.902344 132.125 "/>
<path style=" stroke:none;fill-rule:nonzero;fill:rgb(0.39978%,37.599182%,63.899231%);fill-opacity:1;" d="M 117.886719 142.863281 L 125.070313 142.863281 L 125.917969 139.492188 L 122.597656 139.492188 L 123.140625 137.308594 L 126.117188 137.308594 L 126.964844 133.925781 L 123.984375 133.925781 L 124.480469 131.933594 L 127.800781 131.933594 L 128.644531 128.5625 L 121.449219 128.5625 L 117.886719 142.863281 "/>
<path style=" stroke:none;fill-rule:nonzero;fill:rgb(0.39978%,37.599182%,63.899231%);fill-opacity:1;" d="M 127.859375 142.519531 C 128.675781 142.902344 129.621094 143.113281 130.605469 143.113281 C 133.304688 143.113281 135.6875 140.988281 136.351563 138.332031 C 136.621094 137.246094 136.5625 136.492188 136.269531 135.847656 C 135.996094 135.207031 135.484375 134.671875 134.8125 134.097656 C 134.640625 133.9375 134.40625 133.746094 134.257813 133.515625 C 134.105469 133.285156 133.996094 133.019531 134.078125 132.71875 C 134.207031 132.167969 134.84375 131.84375 135.296875 131.84375 C 136.191406 131.84375 136.914063 132.660156 137.1875 133.382813 L 138.273438 129.039063 C 137.566406 128.605469 136.632813 128.324219 135.695313 128.324219 C 132.40625 128.324219 130.585938 131.351563 130.164063 133.019531 C 129.910156 134.066406 130.011719 134.863281 130.324219 135.527344 C 130.644531 136.210938 131.167969 136.753906 131.78125 137.347656 C 131.984375 137.519531 132.175781 137.6875 132.285156 137.890625 C 132.425781 138.101563 132.476563 138.351563 132.394531 138.6875 C 132.234375 139.320313 131.550781 139.640625 131.019531 139.640625 C 130.03125 139.640625 129.308594 138.835938 128.976563 138.042969 L 127.859375 142.519531 "/>
<path style=" stroke:none;fill-rule:nonzero;fill:rgb(0.39978%,37.599182%,63.899231%);fill-opacity:1;" d="M 144.640625 142.863281 L 145.488281 139.492188 L 142.578125 139.492188 L 145.304688 128.5625 L 141.433594 128.5625 L 137.871094 142.863281 L 144.640625 142.863281 "/>
<path style=" stroke:none;fill-rule:nonzero;fill:rgb(0.39978%,37.599182%,63.899231%);fill-opacity:1;" d="M 150.871094 142.863281 L 154.441406 128.5625 L 150.566406 128.5625 L 147.007813 142.863281 L 150.871094 142.863281 "/>
<path style=" stroke:none;fill-rule:nonzero;fill:rgb(0.39978%,37.599182%,63.899231%);fill-opacity:1;" d="M 160.910156 134.601563 L 160.15625 137.617188 L 161.574219 137.617188 C 161.382813 138.445313 160.761719 139.660156 159.742188 139.660156 C 158.242188 139.660156 158.9375 137.15625 159.140625 136.140625 C 159.410156 135.054688 160.074219 131.773438 161.855469 131.773438 C 162.539063 131.773438 162.703125 132.667969 162.589844 133.234375 L 166.675781 131.855469 C 166.355469 129.78125 164.996094 128.324219 162.683594 128.324219 C 158.484375 128.324219 156.160156 132.246094 155.277344 135.789063 C 154.378906 139.410156 154.824219 143.113281 159.027344 143.113281 C 163.507813 143.113281 165.277344 138.734375 166.164063 135.207031 L 166.292969 134.601563 L 160.910156 134.601563 "/>
<path style=" stroke:none;fill-rule:evenodd;fill:rgb(0.39978%,37.599182%,63.899231%);fill-opacity:1;" d="M 176.9375 142.871094 L 177.472656 128.574219 L 172.753906 128.574219 L 165.761719 142.871094 L 169.734375 142.871094 L 170.519531 141.03125 L 173.113281 141.03125 L 172.945313 142.871094 Z M 171.785156 137.992188 L 173.144531 134.671875 C 173.519531 133.785156 173.839844 132.882813 174.179688 131.984375 L 174.210938 131.984375 C 174.089844 132.882813 173.941406 133.785156 173.828125 134.671875 L 173.417969 137.992188 L 171.785156 137.992188 "/>
<path style=" stroke:none;fill-rule:nonzero;fill:rgb(73.699951%,15.299988%,21.199036%);fill-opacity:1;" d="M 45.519531 128.042969 L 66.648438 128.042969 L 62.890625 143.394531 L 41.761719 143.394531 L 45.519531 128.042969 "/>
<path style=" stroke:none;fill-rule:nonzero;fill:rgb(100%,100%,100%);fill-opacity:1;" d="M 49.304688 132.175781 L 46.636719 142.441406 L 52.492188 142.410156 L 55.976563 129.007813 L 47.804688 129.046875 L 46.996094 132.175781 L 49.304688 132.175781 "/>
<path style=" stroke:none;fill-rule:nonzero;fill:rgb(100%,100%,100%);fill-opacity:1;" d="M 59.882813 138.375 C 58.492188 138.375 57.125 139.347656 56.808594 140.578125 C 56.492188 141.785156 57.347656 142.78125 58.742188 142.78125 C 60.132813 142.78125 61.507813 141.785156 61.816406 140.578125 C 62.136719 139.347656 61.277344 138.375 59.882813 138.375 "/>
<path style=" stroke:none;fill-rule:nonzero;fill:rgb(13.699341%,12.199402%,12.5%);fill-opacity:1;" d="M 107.957031 68.949219 L 106.457031 74.839844 L 103.238281 74.839844 L 105.332031 65.871094 L 130.273438 65.871094 C 133.402344 65.871094 133.554688 67.59375 133.273438 68.949219 L 107.957031 68.949219 "/>
<path style=" stroke:none;fill-rule:nonzero;fill:rgb(13.699341%,12.199402%,12.5%);fill-opacity:1;" d="M 101.871094 94.03125 L 100.117188 101.773438 L 96.894531 101.773438 L 99.472656 90.9375 L 123.632813 90.9375 C 127.738281 90.9375 127.6875 92.71875 127.414063 94.035156 L 101.871094 94.03125 "/>
<path style=" stroke:none;fill-rule:nonzero;fill:rgb(13.699341%,12.199402%,12.5%);fill-opacity:1;" d="M 160.125 55.054688 C 159.734375 55.914063 159.359375 57.0625 159.019531 58.511719 C 154.996094 75.484375 148.785156 101.816406 148.785156 101.816406 C 148.785156 101.816406 150.335938 101.816406 151.855469 101.816406 C 154.089844 92.386719 158.414063 74.113281 161.492188 61.097656 C 162.601563 56.410156 165.015625 55.050781 165.015625 55.050781 L 160.144531 55.050781 L 160.125 55.054688 "/>
<path style=" stroke:none;fill-rule:nonzero;fill:rgb(13.699341%,12.199402%,12.5%);fill-opacity:1;" d="M 73.601563 118.414063 C 72.539063 120.457031 71.265625 121.78125 71.265625 121.78125 L 180.550781 121.78125 L 184.253906 107.003906 C 184.253906 107.003906 182.675781 107.65625 180.328125 107.890625 L 177.632813 118.414063 L 73.601563 118.414063 "/>
<path style=" stroke:none;fill-rule:evenodd;fill:rgb(13.699341%,12.199402%,12.5%);fill-opacity:1;" d="M 69.042969 115.28125 C 70.558594 113.984375 71.101563 111.671875 71.101563 111.671875 C 63.683594 115.835938 54.453125 118.414063 42.722656 118.414063 L 17.5 118.421875 C 16.378906 120.554688 15.1875 121.78125 15.1875 121.78125 L 42.851563 121.78125 C 46.496094 121.78125 59.257813 121.933594 69.042969 115.28125 "/>
<path style=" stroke:none;fill-rule:nonzero;fill:rgb(13.699341%,12.199402%,12.5%);fill-opacity:1;" d="M 15.398438 74.480469 C 14.863281 70.851563 27.4375 67.875 43.988281 67.875 C 59.78125 67.875 72.644531 71.566406 72.644531 74.570313 C 72.644531 77.523438 61.515625 81.054688 43.898438 81.054688 C 27.554688 81.054688 15.398438 77.398438 15.398438 74.480469 "/>
<path style=" stroke:none;fill-rule:nonzero;fill:rgb(13.699341%,12.199402%,12.5%);fill-opacity:1;" d="M 71.488281 79.394531 C 67.214844 82.113281 57.011719 84.058594 43.585938 84.058594 C 29.382813 84.058594 18.917969 81.65625 14.492188 78.082031 C 14.492188 78.082031 12.613281 85.878906 11.480469 90.40625 C 10.414063 94.675781 26.113281 97.84375 40.3125 97.84375 C 53.738281 97.84375 67.710938 95.03125 68.652344 91.320313 C 69.796875 86.792969 71.488281 79.394531 71.488281 79.394531 "/>
<path style=" stroke:none;fill-rule:nonzero;fill:rgb(0.39978%,37.599182%,63.899231%);fill-opacity:1;" d="M 88.703125 84.664063 C 94.378906 55.921875 70.28125 52.574219 56.460938 52.574219 C 45.046875 52.574219 30.4375 52.574219 30.4375 52.574219 C 30.4375 52.574219 31.746094 54.105469 31.074219 57.539063 L 29.171875 66.410156 C 33.816406 65.671875 37.953125 65.464844 43.472656 65.339844 C 56.511719 65.042969 76.933594 68.609375 75.308594 75.304688 C 74.089844 80.324219 70.992188 92.785156 70.992188 92.785156 C 69.925781 97.109375 57.148438 100.847656 38.335938 100.46875 C 31.910156 100.40625 26.070313 99.738281 21.363281 98.667969 C 21.363281 98.667969 19.625 105.855469 18.644531 110.222656 C 17.570313 115 15.90625 115.644531 15.90625 115.644531 C 15.90625 115.644531 31.03125 115.644531 41.761719 115.644531 C 56.949219 115.644531 67.074219 110.484375 70.433594 108.492188 C 70.433594 108.492188 85.808594 99.324219 88.703125 84.664063 "/>
<path style=" stroke:none;fill-rule:nonzero;fill:rgb(0.39978%,37.599182%,63.899231%);fill-opacity:1;" d="M 86.371094 59.488281 C 86.652344 58.984375 86.675781 58.773438 86.675781 58.773438 C 86.675781 58.773438 87.96875 54.722656 86.363281 52.574219 L 136.753906 52.574219 L 133.855469 64.046875 C 132.46875 62.933594 129.296875 63.046875 129.296875 63.046875 L 103.210938 63.046875 L 99.855469 77.425781 L 126.792969 77.425781 C 126.792969 77.425781 129.609375 77.425781 130.9375 76.824219 L 127.917969 89.144531 C 126.660156 88.003906 123.410156 88.113281 123.410156 88.113281 L 97.339844 88.113281 L 93.539063 104.378906 L 120.273438 104.378906 C 120.273438 104.378906 122.886719 104.425781 124.398438 103.914063 L 121.570313 115.65625 L 71.863281 115.65625 C 72.753906 114.476563 73.65625 113.132813 74.738281 109.007813 C 74.738281 109.007813 88.902344 99.683594 91.671875 84.003906 C 94.527344 67.867188 86.371094 59.488281 86.371094 59.488281 "/>
<path style=" stroke:none;fill-rule:nonzero;fill:rgb(0.39978%,37.599182%,63.899231%);fill-opacity:1;" d="M 140.003906 52.546875 L 124.878906 115.65625 L 175.398438 115.65625 L 178.457031 103.863281 C 177.210938 104.4375 173.667969 104.398438 173.667969 104.398438 L 145.34375 104.398438 L 155.890625 59.738281 C 155.890625 59.738281 156.957031 54.5 158.898438 52.546875 L 140.003906 52.546875 "/>
</g>
</svg>
