<?xml version="1.0" encoding="utf-8"?>
<!-- Generator: Adobe Illustrator 19.2.1, SVG Export Plug-In . SVG Version: 6.00 Build 0)  -->
<svg version="1.1" id="layer" xmlns="http://www.w3.org/2000/svg" xmlns:xlink="http://www.w3.org/1999/xlink" x="0px" y="0px"
	 viewBox="0 0 652 652" style="enable-background:new 0 0 652 652;" xml:space="preserve">
<g>
	<g>
		<g>
			<g>
				<path d="M532.5,294.5h30.5v-52.9c1.6-6,6.6-9.5,12.6-9.5c7.7,0,11.5,5.3,11.5,12.5v50h30.3v-57.5c0-19.4-11.5-32.1-30.9-32.1
					c-10.1,0-18.6,4.1-23.5,9.5v-46.5h-30.5L532.5,294.5L532.5,294.5z M453.9,250.8c0,28.2,19.4,45.7,45.7,45.7
					c8.9,0,17.3-1.8,23.5-6.2v-25.7c-5.6,4.1-11.7,6.2-18.8,6.2c-11.3,0-20.2-6.8-20.2-20c0-13.2,8.9-20,20.2-20
					c7.2,0,13.2,2.2,18.8,6.2v-25.8c-6.2-4.5-14.6-6.2-23.5-6.2C473.4,205.1,453.9,222.5,453.9,250.8 M379,288.2
					c8.1,5.5,21,8.3,33.2,8.3c21.6,0,37.6-9.1,37.6-27.8c0-14.8-7.5-22.5-26.6-27.6l-7.9-2.4c-4.3-1.2-6.8-2.4-6.8-5.7
					c0-3.5,3.5-5.3,8.7-5.3c9.9,0,19.2,4.1,27.5,10.1v-24.9c-8.5-5.3-18-7.7-30.5-7.7c-20.6,0-35.8,10.3-35.8,28.6
					c0,15.8,10.3,23.3,26.4,26.9l6.8,1.8c5.2,1.2,7.9,2.5,7.9,6c0,3.9-3.9,5.3-9.9,5.3c-8.9,0-22.5-4.3-30.9-11.1L379,288.2
					L379,288.2L379,288.2z M358,230.8h17.1v-23.7H358V183h-30.3v24.1h-15.2v23.7h15.2v63.7H358V230.8z M305.2,207.1h-30.5v53.1
					c-1.6,6-6.8,9.7-12.5,9.7c-7.7,0-11.3-5.3-11.3-12.6v-50.2h-30.3v57.4c0,19.4,11.5,32.1,30.7,32.1c9.9,0,18.6-4.1,23.3-9.5v7.5
					h30.5V207.1z M172.8,228.3c7.4,0,11.9,5.1,12.6,12.5h-26.2C161.4,232.8,166.3,228.3,172.8,228.3 M212.7,257.8v-8.9
					c0-26.1-13.8-43.7-41-43.7c-24.1,0-42.4,18.8-42.4,46.3c0,28.2,19,45.1,47.1,45.1c12.6,0,23.3-2.7,30.1-7.7v-23.1
					c-8.7,5.3-15.9,7-25.3,7c-11.3,0-19.8-4.3-22.4-14.8L212.7,257.8L212.7,257.8z M20,294.5h45.1c37.5,0,60.2-23.3,60.2-59.7
					S102.5,175,65.1,175H20V294.5z M50.7,267.6V202h12.8c19.8,0,30.9,12.6,30.9,32.8c0,20-11.1,32.6-30.9,32.6L50.7,267.6
					L50.7,267.6z"/>
			</g>
		</g>
	</g>
	<g>
		<g>
			<g>
				<path d="M618.9,426.7l1.1-6.6c-5.2,2.6-11.8,4.3-17.5,4.3c-10.5,0-14.6-4.6-14.6-16.5v-48h29.3l0.7-11.1h-30v-15.6h-7.6
					l-10.5,14.8c-4.5,1.5-8.4,3-13.2,5.7v6.1h12.8v53.6c0,16.3,8.4,25,23.9,25C602.5,438.5,611.5,434.5,618.9,426.7 M535.9,422.2
					l-23.5-28c-4.6-6.1-7.2-8.6-9.3-10.4c1.5-0.9,3-2.2,5-4.1l21.1-18.7c7-5.9,7.8-6.3,12-7.4l7.5-2v-6.3h-42.5v6.5l5.2,1.3
					c6.6,1.5,7.6,3.2,4.5,6.5c-8.9,10-20.5,22.8-30,30v-81.4h-2.5c-9.1,0-18.9,1.8-29.5,5.6v4.6l8,2.2c3.9,1.1,4.8,2.2,5,5.7
					c0.2,4.1,0.2,12.8,0.2,21.5v51.8c0,9.3,0,18.2-0.2,23c-0.2,4.1-0.4,4.3-3.9,5.4l-7.5,2.4v6.3h42.2v-6.3l-7.8-2.5
					c-3.4-1.3-3.5-1.3-3.7-5.4c-0.2-4.8-0.2-13.7-0.2-23v-7.6c1.5,1.1,2.8,2.5,5.2,5.6l17.8,22.7c11.3,15.4,15.4,18.2,40.7,18
					l2.2-6.5C542.5,429.1,540,426.9,535.9,422.2 M420.2,374.9l-38,2.2c0.7-9.3,3.2-15.2,7.4-19.1c3-2.8,7.4-4.5,12-4.5
					C412.5,353.6,419.3,361.2,420.2,374.9 M441.5,422.3l1.1-7.4c-8,5.2-18.5,8.4-27.4,8.4c-6.6,0-11.8-1.3-16.1-3.7
					c-9.5-5-16.8-15.4-17-33.9h58c1.1-26.3-12-42.2-34.5-42.2c-10.5,0-19.5,3.2-26.6,9.3c-10.4,8.6-15.7,21.7-15.7,38.4
					c0,26.1,15,46.9,42.8,46.9C420.9,438.2,434.6,431,441.5,422.3 M372.4,319c0-3.9-1.5-6.6-4.6-8.7c-3.2-2.2-8.4-3-13.9-3
					c-7.5,0-18.2,2-28.9,11.1c-9.8,8.2-14.5,21.3-14.5,28.4v1.6c-4.6,1.3-8.2,2.8-13,5.6v6.1h13v39.5c0,9.3,0,18.2-0.2,23
					c-0.2,3.7-0.4,4.1-3.9,5.2l-7.5,2.5v6.3h43.4v-6.7l-9.1-2.4c-3.5-1.1-3.7-1.5-3.9-5.2c-0.2-4.8-0.2-13.7-0.2-23v-39.5h27.6
					l0.7-11.1h-28.4v-2.5c0-18.9,3-24.7,12.8-24.7c5.4,0,15.5,2.6,26.5,8C370.7,326.3,372.4,322.5,372.4,319 M266.1,361.2
					c3.7,0,9.1,1.3,16.3,4.8c2.6-4.1,4.3-8.4,4.3-12.4c0-6.5-4.8-10.2-12.4-10.2c-8.4,0-15.2,5-19.5,14.7v-13.6h-2
					c-9.8,0-19.5,1.8-29.5,5.6v4.6l8,2.2c3.9,1.1,4.8,2.2,5,5.7c0.2,4.1,0.2,12.8,0.2,21.5v15.2c0,9.3,0,18.2-0.2,23.2
					c-0.2,3.9-0.4,4.1-3.9,5.2l-7.4,2.5v6.1h42.6V430l-8.2-2.4c-3.7-0.9-3.9-1.5-4.1-5.2c-0.2-5-0.2-13.9-0.2-23.2v-33.8
					C257.5,363.1,261.6,361.2,266.1,361.2 M188.4,374.9l-38,2.2c0.7-9.3,3.2-15.2,7.4-19.1c3-2.8,7.4-4.5,12-4.5
					C180.7,353.6,187.5,361.2,188.4,374.9 M209.6,422.3l1.1-7.4c-8,5.2-18.5,8.4-27.4,8.4c-6.6,0-11.8-1.3-16.1-3.7
					c-9.5-5-16.8-15.4-17-33.9h58c1.1-26.3-12-42.2-34.5-42.2c-10.5,0-19.5,3.2-26.6,9.3c-10.4,8.6-15.7,21.7-15.7,38.4
					c0,26.1,15,46.9,42.8,46.9C189.1,438.2,202.8,431,209.6,422.3 M85,422.3c-3.9,3-8.7,4.6-14.6,4.6c-4.8,0-10.4-0.7-18.2-2.8
					v-60.2c3.5-3.7,10.9-6.5,17.5-6.5c16.5,0,26.1,12.8,26.1,35.4C95.7,406.2,91.8,416.9,85,422.3 M78.7,343.8
					c-11.1,0-21.1,5-27.2,12.8v-12.1h-2c-9.8,0-19.5,1.8-29.5,5.6v4.6l8,2.2c3.9,1.1,4.8,2.2,5,5.7c0.2,4.1,0.2,12.8,0.2,21.5v60.1
					c0,9.3,0,12.8-0.2,17.7c-0.2,4.1-0.4,4.3-3.9,5.4l-7.3,2.3v6.3h42.2v-6.3l-7.8-2.4c-3.5-1.1-3.7-1.3-3.9-5.4
					c-0.2-4.8-0.2-8.4-0.2-17.7v-6.8c3.9,0.7,8.2,1.1,12.6,1.1c12,0,22.2-3,31.6-9.8c12.4-8.7,18.9-23.9,18.9-43.4
					C115.4,360.9,100.2,343.8,78.7,343.8"/>
			</g>
		</g>
	</g>
</g>
</svg>
